    <svg id="cognito_main_logo"  xmlns="http://www.w3.org/2000/svg" xmlns:xlink="http://www.w3.org/1999/xlink" viewBox="0 0 1200 1200">
        <g transform="translate(-5.999999-5.999999)" fill="#fff">
            <rect width="46"        class="rect-1"  height="46" rx="0" ry="0" transform="matrix(6.789745 0 0 0.260723 295.055443 566.640055)"               fill="#fff"/> 
            <rect width="46"        class="rect-2"  height="46" rx="0" ry="0" transform="matrix(0-3.794806-.260723 0 807.380342 633.597473)"                fill="#fff"/>
            <rect width="46"        class="rect-3"  height="46" rx="0" ry="0" transform="matrix(6.789745 0 0 0.260723 595.055443 566.640055)"               fill="#fff"/>
            <rect width="46"        class="rect-4"  height="46" rx="0" ry="0" transform="matrix(0-3.794806-.260723 0 613.380347 578.633312)"                fill="#fff"/>
            <rect width="33.356358" class="rect-5"  height="46" rx="0" ry="0" transform="matrix(0-3.897308-.260723 0 902.380341 708.597474)"                fill="#fff"/>
            <rect width="33.356358" class="rect-6"  height="46" rx="0" ry="0" transform="matrix(0-3.897308-.260723 0 301.052076 566.640055)"                fill="#fff"/>
            <rect width="33.356358" class="rect-7"  height="46" rx="0" ry="0" transform="matrix(3.897308 0 0-.260723 301.052076 451.633317)"                fill="#fff"/>
            <rect width="33.356358" class="rect-8"  height="46" rx="0" ry="0" transform="matrix(3.653672-3.519938-.180891-.187763 313.568406 570.945541)"   fill="#fff"/>
            <rect width="33.356358" class="rect-9"  height="46" rx="0" ry="0" transform="matrix(-3.698615-2.931041-.161932 0.204339 591.770812 552.10546)"  fill="#fff"/>
            <rect width="33.356358" class="rect-10" height="46" rx="0" ry="0" transform="matrix(0-3.897308-.260723 0 807.380332 758.20435)"                 fill="#fff"/>
            <rect width="33.356358" class="rect-11" height="46" rx="0" ry="0" transform="matrix(0-3.897308-.260723 0 612.993265 791.597474)"                fill="#fff"/>
            <rect width="33.356358" class="rect-12" height="46" rx="0" ry="0" transform="matrix(3.436195-4.667707-.209965-.154568 481.981052 845.902061)"   fill="#fff"/>
            <rect width="33.356358" class="rect-13" height="46" rx="0" ry="0" transform="matrix(1.25942 3.826409 0.247653-.081512 408.383708 707.283537)"   fill="#fff"/>
            <rect width="33.356358" class="rect-14" height="46" rx="0" ry="0" transform="matrix(4.605821 2.515377 0.124967-.228823 427.81428 698.175119)"   fill="#fff"/>
            <rect width="33.356358" class="rect-15" height="46" rx="0" ry="0" transform="matrix(5.414541 2.421849 0.106454-.238 621.366163 685.075233)"     fill="#fff"/>
            <rect width="33.356358" class="rect-16" height="46" rx="0" ry="0" transform="matrix(2.3958 1.747212 0.153627-.210655 795.254598 761.697792)"    fill="#fff"/>
            <rect width="33.356358" class="rect-17" height="46" rx="0" ry="0" transform="matrix(3.993173-.184157-.012011-.260446 442.056868 685.896049)"    fill="#fff"/>
            <rect width="33.356358" class="rect-18" height="46" rx="0" ry="0" transform="matrix(0-3.897308-.260723 0 902.380348 829.636684)"                fill="#fff"/>
            <rect width="33.356358" class="rect-19" height="46" rx="0" ry="0" transform="matrix(0-3.897308-.260723 0 613.380368 937.957824)"                fill="#fff"/>
            <rect width="33.356358" class="rect-20" height="46" rx="0" ry="0" transform="matrix(3.106401-2.353568-.15745-.207813 627.997012 965.205894)"    fill="#fff"/>
            <rect width="33.356358" class="rect-21" height="46" rx="0" ry="0" transform="matrix(-3.075457-2.393861-.160145 0.205743 587.104599 947.526381)" fill="#fff"/>
            <rect width="33.356358" class="rect-22" height="46" rx="0" ry="0" transform="matrix(-3.231227-2.179033-.145773 0.216163 728.536291 862.464461)" fill="#fff"/>
            <rect width="33.356358" class="rect-23" height="46" rx="0" ry="0" transform="matrix(0-3.897308-.260723 0 613.380361 387.945535)"                fill="#fff"/>
            <rect width="33.356358" class="rect-24" height="46" rx="0" ry="0" transform="matrix(3.359984-1.974719-.132105-.224777 484.499757 319.945535)"   fill="#fff"/>
            <rect width="33.356358" class="rect-25" height="46" rx="0" ry="0" transform="matrix(3.178242-2.255612-.150896-.212619 618.285234 406.174086)"   fill="#fff"/>
            <rect width="33.356358" class="rect-26" height="46" rx="0" ry="0" transform="matrix(3.334333 2.01773 0.134983-.223061 477.625045 336.305645)"   fill="#fff"/>
            <rect width="33.356358" class="rect-27" height="46" rx="0" ry="0" transform="matrix(4.825344 1.021695 0.054007-.255068 622.773237 415.754874)"  fill="#fff"/>
            <rect width="33.356358" class="rect-28" height="46" rx="0" ry="0" transform="matrix(4.60191-2.953502-.140824-.21942 633.465133 559.526718)"     fill="#fff"/>
            <rect width="33.356358" class="rect-29" height="46" rx="0" ry="0" transform="matrix(3.197723 2.227909 0.149043-.213922 609.824431 247.92581)"   fill="#fff"/>

        </g>
        <g transform="translate(-5.999999-6)">
            <circle r="27.5" class="circle-1"  transform="matrix(1.383244 0 0 1.383244 607.383707 570.945535)" fill="#fff"/>
            <circle r="27.5" class="circle-2"  transform="matrix(1.383244 0 0 1.383244 294.383707 570.945535)" fill="#fff"/>
            <circle r="27.5" class="circle-3"  transform="matrix(1.383244 0 0 1.383244 294.383707 445.945535)" fill="#fff"/>
            <circle r="27.5" class="circle-4"  transform="matrix(1.383244 0 0 1.383244 440.383707 445.945535)" fill="#fff"/>
            <circle r="27.5" class="circle-5"  transform="matrix(1.383244 0 0 1.383244 463.383707 322.945535)" fill="#fff"/>
            <circle r="27.5" class="circle-6"  transform="matrix(1.383244 0 0 1.383244 722.383707 319.945535)" fill="#fff"/>
            <circle r="27.5" class="circle-7"  transform="matrix(1.383244 0 0 1.383244 607.383707 409.888307)" fill="#fff"/>
            <circle r="27.5" class="circle-8"  transform="matrix(1.383244 0 0 1.383244 607.383707 244.888307)" fill="#fff"/>
            <circle r="27.5" class="circle-9"  transform="matrix(1.383244 0 0 1.383244 607.383707 671.636684)" fill="#fff"/>
            <circle r="27.5" class="circle-10" transform="matrix(1.383244 0 0 1.383244 408.383707 681.636684)" fill="#fff"/>
            <circle r="27.5" class="circle-11" transform="matrix(1.383244 0 0 1.383244 896.383707 701.636684)" fill="#fff"/>
            <circle r="27.5" class="circle-12" transform="matrix(1.383244 0 0 1.383244 896.383707 829.636684)" fill="#fff"/>
            <circle r="27.5" class="circle-13" transform="matrix(1.383244 0 0 1.383244 801.383707 633.636684)" fill="#fff"/>
            <circle r="27.5" class="circle-14" transform="matrix(1.383244 0 0 1.383244 896.383707 572.636684)" fill="#fff"/>
            <circle r="27.5" class="circle-15" transform="matrix(1.383244 0 0 1.383244 801.383707 445.636684)" fill="#fff"/>
            <circle r="27.5" class="circle-16" transform="matrix(1.383244 0 0 1.383244 607.383707 785.636684)" fill="#fff"/>
            <circle r="27.5" class="circle-17" transform="matrix(1.383244 0 0 1.383244 607.383707 967.636684)" fill="#fff"/>
            <circle r="27.5" class="circle-18" transform="matrix(1.383244 0 0 1.383244 463.383707 860.636684)" fill="#fff"/>
            <circle r="27.5" class="circle-19" transform="matrix(1.383244 0 0 1.383244 737.99245 872.957823)"  fill="#fff"/>
        </g>
    </svg>
